# xmcd
#
# Track frame offsets: 
#        150
#        22472
#        49711
#        63480
#        85974
#        98305
#        118455
#        146541
#        168870
#        179449
#        195664
#        214957
#        236906
#        267047
#        290436
#
# Disc length: 4112 seconds
#
# Revision: 0
# Processed by: cddbd v1.5.1PL2 Copyright (c) Steve Scherf et al.
# Submitted via: ExactAudioCopy v0.95b3
#
DISCID=e2100e0f
DTITLE=Various Artist - Blues Smooth Grooves
DYEAR=2003
DGENRE=Blues
TTITLE0=Robben Ford and The Blue Line - When I Leave Here
TTITLE1=Larry Carlton Featuring Terry McMillan - Cold Day in Hell
TTITLE2=The Gregg Allman Band - Brightest Smile In Town
TTITLE3=Roy Buchanan - Wayfaring Pilgrim
TTITLE4=Bonnie Bramlett - Two Steps From The Blues
TTITLE5=Diane Schuur and B.B. King - I Can't Stop Loving You
TTITLE6=The Broadcasters - Ronnie Earl - Heart Of Glass
TTITLE7=Mighty Mo Rodgers - No Regrets
TTITLE8=J.J. Cale - After Midnight
TTITLE9=Buddy Miles - Midnight Rider
TTITLE10=Doyle Bramhall II - Ain't Goin' Down Slow
TTITLE11=Arc Angels - Living In A Dream
TTITLE12=Lucky Peterson - Wash My Back
TTITLE13=Kevin Eubanks - Angel With The Blues
TTITLE14=Dr. John - New York City Blues
EXTD=
EXTT0=
EXTT1=
EXTT2=
EXTT3=
EXTT4=
EXTT5=
EXTT6=
EXTT7=
EXTT8=
EXTT9=
EXTT10=
EXTT11=
EXTT12=
EXTT13=
EXTT14=
PLAYORDER=
